HIERARCHY
ROOT Hips
{
  OFFSET -125.086 92.215 135.881
  CHANNELS 6 Xposition Yposition Zposition Zrotation Xrotation Yrotation
  JOINT LeftUpLeg
  {
    OFFSET 8.64259 1.95398 -2.38835
    CHANNELS 3 Zrotation Xrotation Yrotation
    JOINT LeftLeg
    {
      OFFSET 43.7702 0 0
      CHANNELS 3 Zrotation Xrotation Yrotation
      JOINT LeftFoot
      {
        OFFSET 40.6238 0 0
        CHANNELS 3 Zrotation Xrotation Yrotation
        JOINT LeftToeBase
        {
          OFFSET 12.7242 0 0
          CHANNELS 3 Zrotation Xrotation Yrotation
          End Site
          {
            OFFSET 0 0 0
          }
        }
      }
    }
  }
  JOINT RightUpLeg
  {
    OFFSET -8.2249 1.95398 -2.59336
    CHANNELS 3 Zrotation Xrotation Yrotation
    JOINT RightLeg
    {
      OFFSET 43.5653 0 0
      CHANNELS 3 Zrotation Xrotation Yrotation
      JOINT RightFoot
      {
        OFFSET 40.6238 0 0
        CHANNELS 3 Zrotation Xrotation Yrotation
        JOINT RightToeBase
        {
          OFFSET 12.7242 0 0
          CHANNELS 3 Zrotation Xrotation Yrotation
          End Site
          {
            OFFSET 0 0 0
          }
        }
      }
    }
  }
  JOINT Spine
  {
    OFFSET 0.165834 0.87714 6.61349
    CHANNELS 3 Zrotation Xrotation Yrotation
    JOINT Spine1
    {
      OFFSET 7.38963 1.71661e-005 0
      CHANNELS 3 Zrotation Xrotation Yrotation
      JOINT Spine2
      {
        OFFSET 11.9445 1.14441e-005 0
        CHANNELS 3 Zrotation Xrotation Yrotation
        JOINT Spine3
        {
          OFFSET 14.7254 4.19617e-005 0
          CHANNELS 3 Zrotation Xrotation Yrotation
          JOINT Spine4
          {
            OFFSET 10.9679 0 0
            CHANNELS 3 Zrotation Xrotation Yrotation
            JOINT RightShoulder
            {
              OFFSET 2.46616 -1.6653 3.69651
              CHANNELS 3 Zrotation Xrotation Yrotation
              JOINT RightArm
              {
                OFFSET 13.0012 0 0
                CHANNELS 3 Zrotation Xrotation Yrotation
                JOINT RightForeArm
                {
                  OFFSET 28.7848 1.52588e-005 0
                  CHANNELS 3 Zrotation Xrotation Yrotation
                  JOINT RightHand
                  {
                    OFFSET 26.5688 1.52588e-005 0
                    CHANNELS 3 Zrotation Xrotation Yrotation
                    End Site
                    {
                      OFFSET 0 0 0
                    }
                  }
                }
              }
            }
            JOINT LeftShoulder
            {
              OFFSET 2.38034 -1.29275 -3.7523
              CHANNELS 3 Zrotation Xrotation Yrotation
              JOINT LeftArm
              {
                OFFSET 16.3182 6.10352e-005 0
                CHANNELS 3 Zrotation Xrotation Yrotation
                JOINT LeftForeArm
                {
                  OFFSET 27.0901 0 0
                  CHANNELS 3 Zrotation Xrotation Yrotation
                  JOINT LeftHand
                  {
                    OFFSET 24.5451 1.52588e-005 0
                    CHANNELS 3 Zrotation Xrotation Yrotation
                    End Site
                    {
                      OFFSET 0 0 0
                    }
                  }
                }
              }
            }
            JOINT Neck
            {
              OFFSET 5.0226 -0.0266342 0
              CHANNELS 3 Zrotation Xrotation Yrotation
              JOINT Head
              {
                OFFSET 6.69363 2.86102e-005 0
                CHANNELS 3 Zrotation Xrotation Yrotation
                End Site
                {
                  OFFSET 0 0 0
                }
              }
            }
          }
        }
      }
    }
  }
}
MOTION
Frames:	7
Frame Time:	0.0416667
252.276 72.1992 -248.805 4.18322 -81.0957 -6.93456 -171.713 47.3533 165.818 25.71 62.643 -148.942 85.9683 -30.0482 52.159 16.7149 28.4687 -89.4486 172.82 75.3324 55.5194 -40.1919 -55.4049 8.32641 64.425 11.6996 -18.8028 132.668 47.1053 63.7662 -5.84498 0.163073 -87.7381 27.0231 -9.7969 7.80539 15.3631 -9.44504 8.22887 -7.39434 -11.6838 4.48056 12.6183 -11.6838 4.48056 110.183 -36.8879 -67.3006 85.9159 -14.7491 126.814 -61.3359 62.1582 -89.4286 -5.73043 2.13284 -50.8939 -64.5947 -7.46806 135.038 108.665 -18.6153 -143.482 101.187 -50.3061 -92.2539 14.252 26.4802 112.116 -94.1751 -49.3069 16.934 79.0051 -62.2379 -30.304 
252.441 72.3991 -248.988 4.23514 -81.1302 -6.84185 -171.603 45.6641 164.996 25.6219 61.0678 -147.445 85.0818 -30.5096 51.2587 17.7471 26.9812 -88.8678 171.236 74.9834 57.0958 -39.3749 -55.6003 8.08504 64.3091 12.1366 -18.9025 132.182 47.3055 64.3081 -5.84214 0.167334 -87.7324 27.0141 -9.7888 7.81314 15.354 -9.43659 8.23625 -7.40262 -11.6784 4.49052 12.61 -11.6784 4.4905 110.557 -37.3089 -66.7065 85.0939 -15.8835 126.599 -60.2612 61.7449 -90.3551 -5.39319 1.9699 -50.4772 -64.6435 -7.41048 134.953 104.842 -13.5612 -145.414 93.2736 -50.715 -102.305 13.5614 25.3034 111.919 -94.2305 -49.3974 16.9329 78.5791 -62.3498 -30.6587 
252.881 73.2334 -249.493 4.38382 -81.2302 -6.57398 -171.129 41.0707 162.345 25.7574 56.9799 -143.054 81.6264 -31.4804 48.1222 21.4895 21.8425 -87.2963 166.178 73.4762 62.1492 -36.3623 -56.1243 7.27543 63.8223 13.6065 -19.0578 130.916 47.804 65.7175 -5.83381 0.180258 -87.7159 26.9871 -9.76487 7.83581 15.3267 -9.41169 8.2578 -7.42761 -11.6624 4.51968 12.585 -11.6624 4.51967 111.703 -38.5505 -64.9232 82.6453 -19.1723 125.849 -57.3138 60.4925 -92.8676 -4.3587 1.48915 -49.2471 -64.7845 -7.24384 134.707 95.9103 0.0374523 -148.753 73.2632 -47.5172 -127.847 11.4589 21.847 111.533 -94.3936 -49.6537 16.9238 77.3709 -62.6634 -31.6691 
253.722 73.5307 -250.393 4.6186 -81.3886 -6.14716 -172.026 34.3249 159.381 25.798 52.0103 -137.282 73.0711 -29.8732 40.5056 30.0821 10.1207 -81.7769 161.92 72.367 66.3164 -33.5114 -56.9953 6.30621 63.3605 15.539 -19.3412 129.306 48.3977 67.5103 -5.82011 0.202432 -87.689 26.9408 -9.7257 7.87265 15.2799 -9.37097 8.29281 -7.47051 -11.6361 4.56714 12.5422 -11.6361 4.56715 113.726 -40.589 -61.8929 78.4978 -24.3741 124.232 -53.0923 58.3521 -96.3863 -2.52695 0.705511 -47.2145 -65.0082 -6.97762 134.314 85.5695 17.3865 -150 54.6864 -35.739 -153.347 8.08395 16.437 111.18 -94.6616 -50.0425 16.8911 75.5268 -63.1302 -33.2242 
254.945 73.3107 -251.689 4.92902 -81.5975 -5.57786 -173.959 27.728 154.677 24.8511 50.2222 -130.435 57.9234 -19.1755 28.896 48.7876 -6.53279 -67.0522 158.002 71.5637 70.0819 -30.6207 -58.0751 5.18694 62.7873 18.0196 -19.5275 127.8 48.9274 69.2011 -5.80134 0.234926 -87.6517 26.8731 -9.6721 7.92315 15.2115 -9.31522 8.34082 -7.53358 -11.6002 4.6322 12.4791 -11.6002 4.63219 116.824 -43.3882 -57.4955 72.343 -31.0999 121.14 -48.2221 55.2804 -100.319 0.273861 -0.346138 -44.3478 -65.3043 -6.61971 133.79 75.3721 33.0816 -148.145 44.7747 -18.2064 -169.822 3.75993 9.5533 110.793 -95.0323 -50.5176 16.8158 73.2111 -63.6887 -35.1975 
256.456 73.1426 -253.345 5.30543 -81.8486 -4.88181 -176.916 23.8004 145.404 22.6117 56.5528 -122.256 47.6007 -0.697871 22.3654 77.938 -17.7094 -38.2632 153.213 69.8459 74.7136 -25.8804 -59.166 3.73607 61.5372 21.5827 -19.1425 126.693 49.327 70.4779 -5.77809 0.279181 -87.6044 26.7812 -9.60561 7.98718 15.1187 -9.24602 8.40173 -7.6198 -11.5561 4.7142 12.3928 -11.556 4.7142 121.28 -46.8531 -51.5734 63.4429 -38.6977 115.555 -43.1263 51.2639 -104.293 4.24805 -1.58271 -40.5488 -65.663 -6.17338 133.153 65.7112 44.6577 -143.931 63.0892 -34.995 -178.546 -1.2867 1.62843 110.433 -95.5001 -51.0283 16.6821 70.5675 -64.2759 -37.4743 
258.253 73.0296 -255.401 5.73794 -82.1338 -4.07512 -179.338 22.4606 130.412 11.3229 72.4858 -103.611 52.0348 11.6643 20.5831 99.5121 -15.9719 -16.9819 147.641 65.366 80.1606 -15.6826 -60.0717 1.81454 58.011 27.5634 -16.8154 126.107 49.5905 71.2154 -5.75201 0.336831 -87.547 26.662 -9.52958 8.06494 14.9984 -9.16666 8.47594 -7.73228 -11.5069 4.81234 12.2804 -11.5069 4.81233 127.409 -50.7882 -43.9884 50.4295 -46.0465 105.903 -37.917 46.2797 -108.283 9.58634 -2.81921 -35.6047 -66.0758 -5.63272 132.422 57.0226 52.2527 -138.67 -28.2889 -12.2098 0.0843357 -6.38125 -6.32198 110.525 -96.048 -51.5258 16.4898 67.7099 -64.8334 -39.9601 
